<svg width="658" height="472" xmlns="http://www.w3.org/2000/svg" xmlns:xlink="http://www.w3.org/1999/xlink" xmlns:svgjs="http://svgjs.com/svgjs" viewBox="511 288 658 472"><svg width="234" height="241" xmlns="http://www.w3.org/2000/svg" xmlns:xlink="http://www.w3.org/1999/xlink" xmlns:svgjs="http://svgjs.com/svgjs" fill="#98ca3f" x="550" y="428"><svg xmlns="http://www.w3.org/2000/svg" xmlns:xlink="http://www.w3.org/1999/xlink" width="234" height="241"><path paint-order="stroke fill markers" fill-rule="evenodd" d="M0 36.625L140.9 1.331c23.858-5.976 47.991 8.733 53.726 32.745L234 198.962 48.978 241 0 36.625z"/></svg></svg><svg width="345" height="273" xmlns="http://www.w3.org/2000/svg" xmlns:xlink="http://www.w3.org/1999/xlink" xmlns:svgjs="http://svgjs.com/svgjs" fill="#76a700" x="764" y="451"><svg xmlns="http://www.w3.org/2000/svg" xmlns:xlink="http://www.w3.org/1999/xlink" width="345" height="273"><path paint-order="stroke fill markers" fill-rule="evenodd" d="M0 69.346L49.1 273 345 218.012 277.547 0 0 69.346z"/></svg></svg><svg width="123" height="257" xmlns="http://www.w3.org/2000/svg" xmlns:xlink="http://www.w3.org/1999/xlink" xmlns:svgjs="http://svgjs.com/svgjs" viewBox="0.5 0 122 257" fill="#98ca3f" x="1040" y="412"><svg xmlns="http://www.w3.org/2000/svg" xmlns:xlink="http://www.w3.org/1999/xlink" width="123" height="257" viewBox="1 0 122 257"><path paint-order="stroke fill markers" fill-rule="evenodd" d="M102.456 3.705C56.064 23.338 1 38.77 1 38.77L68.28 257s39.246-14.294 45.74-31.592C136.467 165.642 109.76 0 109.76 0l-7.304 3.705"/></svg></svg><svg width="215" height="183" xmlns="http://www.w3.org/2000/svg" xmlns:xlink="http://www.w3.org/1999/xlink" xmlns:svgjs="http://svgjs.com/svgjs" fill="#3fcdb5" x="833" y="543"><svg xmlns="http://www.w3.org/2000/svg" xmlns:xlink="http://www.w3.org/1999/xlink" width="215" height="183"><path paint-order="stroke fill markers" fill-rule="evenodd" d="M162.077 0L215 173.386 153.808 183H40.685L0 23.207 162.077 0z"/></svg></svg><svg width="114" height="167" xmlns="http://www.w3.org/2000/svg" xmlns:xlink="http://www.w3.org/1999/xlink" xmlns:svgjs="http://svgjs.com/svgjs" fill="#06be9f" x="835" y="557"><svg xmlns="http://www.w3.org/2000/svg" xmlns:xlink="http://www.w3.org/1999/xlink" width="114" height="167"><path paint-order="stroke fill markers" fill-rule="evenodd" d="M112.35 122.69c-.854-10.549-11.67-16.25-18.786-23.662-20.78-21.38-33.304-47.892-40.134-77.255C51.64 14.608 52.375 7.213 52.338 0L0 7.488 40.644 167H114c-2.945-14.713-.436-29.719-1.65-44.31"/></svg></svg><svg width="107" height="253" xmlns="http://www.w3.org/2000/svg" xmlns:xlink="http://www.w3.org/1999/xlink" xmlns:svgjs="http://svgjs.com/svgjs" viewBox="0 0.5 107 252" fill="#ededed" x="791" y="489"><svg xmlns="http://www.w3.org/2000/svg" xmlns:xlink="http://www.w3.org/1999/xlink" width="107" height="253" viewBox="0 0 107 252"><path paint-order="stroke fill markers" fill-rule="evenodd" d="M3.618 105.66L42.344 252H107L32.315 0C5.579 26.714-6.655 66.486 3.618 105.66"/></svg></svg><svg width="114" height="167" xmlns="http://www.w3.org/2000/svg" xmlns:xlink="http://www.w3.org/1999/xlink" xmlns:svgjs="http://svgjs.com/svgjs" fill="#ffaa4a" x="640" y="557"><svg xmlns="http://www.w3.org/2000/svg" xmlns:xlink="http://www.w3.org/1999/xlink" width="114" height="167"><path paint-order="stroke fill markers" fill-rule="evenodd" d="M112.35 122.69c-.855-10.549-11.67-16.25-18.787-23.662C72.784 77.648 60.26 51.136 53.43 21.773 51.64 14.608 52.375 7.213 52.338 0L0 7.488 40.644 167H114c-2.945-14.713-.436-29.719-1.65-44.31"/></svg></svg><svg width="163" height="184" xmlns="http://www.w3.org/2000/svg" xmlns:xlink="http://www.w3.org/1999/xlink" xmlns:svgjs="http://svgjs.com/svgjs" viewBox="0 0.5 163 183" fill="#ffb25b" x="692" y="542"><svg xmlns="http://www.w3.org/2000/svg" xmlns:xlink="http://www.w3.org/1999/xlink" width="163" height="184" viewBox="0 0 163 183"><path paint-order="stroke fill markers" fill-rule="evenodd" d="M163 173.386L109.988 0 .118 15.705C.157 22.931-.58 30.34 1.215 37.518c6.849 29.414 19.406 55.973 40.24 77.39 7.136 7.426 17.981 13.137 18.838 23.704 1.217 14.617-1.298 29.65 1.655 44.388h39.758L163 173.386z"/></svg></svg><svg width="94" height="250" xmlns="http://www.w3.org/2000/svg" xmlns:xlink="http://www.w3.org/1999/xlink" xmlns:svgjs="http://svgjs.com/svgjs" viewBox="0.313 0 93.373 250" fill="#ededed" x="603" y="492"><svg xmlns="http://www.w3.org/2000/svg" xmlns:xlink="http://www.w3.org/1999/xlink" width="94" height="250" viewBox="0 0 93 249"><path paint-order="stroke fill markers" fill-rule="evenodd" d="M3.62 102.684L42.083 249H93L29.492 0C4.727 26.633-6.288 64.937 3.62 102.684"/></svg></svg><svg width="239" height="283" xmlns="http://www.w3.org/2000/svg" xmlns:xlink="http://www.w3.org/1999/xlink" xmlns:svgjs="http://svgjs.com/svgjs" fill="#fff" x="632" y="457"><svg xmlns="http://www.w3.org/2000/svg" xmlns:xlink="http://www.w3.org/1999/xlink" width="239" height="283"><path paint-order="stroke fill markers" fill-rule="evenodd" d="M226.794 236.65c-10.7 10.111-23.742 17.69-38.606 21.696-52.096 14.038-106.788-21.072-122.159-78.422-15.37-57.35 14.4-115.224 66.497-129.263 13.085-3.526 26.331-3.95 39.08-1.7C146.361 11.01 99.042-8.59 52.563 3.612 31.629 9.11 13.702 20.315 0 35.126L62.934 283H239l-12.206-46.35z"/></svg></svg><svg width="78" height="59" xmlns="http://www.w3.org/2000/svg" xmlns:xlink="http://www.w3.org/1999/xlink" xmlns:svgjs="http://svgjs.com/svgjs" fill="#ff8d43" x="706" y="551"><svg xmlns="http://www.w3.org/2000/svg" xmlns:xlink="http://www.w3.org/1999/xlink" width="78" height="59"><path paint-order="stroke fill markers" fill-rule="evenodd" d="M78 0S53.467 55.72 0 59l17.769-40.461L78-.001z"/></svg></svg><svg width="34" height="29" xmlns="http://www.w3.org/2000/svg" xmlns:xlink="http://www.w3.org/1999/xlink" xmlns:svgjs="http://svgjs.com/svgjs" viewBox="0.5 0 33 29" fill="#ff8d43" x="778" y="543"><svg xmlns="http://www.w3.org/2000/svg" xmlns:xlink="http://www.w3.org/1999/xlink" width="34" height="29" viewBox="1 0 33 29"><path paint-order="stroke fill markers" fill-rule="evenodd" d="M1 10.99s10.744 19.335 33 17.938L25.064 0 1 10.99z"/></svg></svg><svg width="128" height="128" xmlns="http://www.w3.org/2000/svg" xmlns:xlink="http://www.w3.org/1999/xlink" xmlns:svgjs="http://svgjs.com/svgjs" fill="#c9c9c9" x="694" y="504"><svg xmlns="http://www.w3.org/2000/svg" xmlns:xlink="http://www.w3.org/1999/xlink" width="128" height="128" viewBox="0 0 127 127"><path paint-order="stroke fill markers" fill-rule="evenodd" d="M92.356 49.237c11.643-3.13 23.282-4.728 34.644-4.932l-2.568-9.813c-3.173-12.122-8.257-23.235-14.837-33.106C96.85-.858 83.605-.436 70.525 3.083 19.97 16.677-9.555 71.472 2.807 127c13.01-35.673 45.865-66.015 89.549-77.763"/></svg></svg><svg width="47" height="63" xmlns="http://www.w3.org/2000/svg" xmlns:xlink="http://www.w3.org/1999/xlink" xmlns:svgjs="http://svgjs.com/svgjs" fill="#98ca3f" x="660" y="616"><svg xmlns="http://www.w3.org/2000/svg" xmlns:xlink="http://www.w3.org/1999/xlink" width="47" height="63"><path paint-order="stroke fill markers" fill-rule="evenodd" d="M44.7 24.442c5.593 16.95.635 33.852-11.073 37.75C21.917 66.09 7.892 55.51 2.3 38.558-3.293 21.609 1.665 4.706 13.374.809 25.082-3.092 39.107 7.49 44.7 24.441"/></svg></svg><svg width="11" height="5" xmlns="http://www.w3.org/2000/svg" xmlns:xlink="http://www.w3.org/1999/xlink" xmlns:svgjs="http://svgjs.com/svgjs" fill="#ff8d43" x="791" y="630"><svg xmlns="http://www.w3.org/2000/svg" xmlns:xlink="http://www.w3.org/1999/xlink" width="11" height="5"><path paint-order="stroke fill markers" fill-rule="evenodd" d="M.894 1.885c-.964.206-1.22 1.371-.413 1.9a7.58 7.58 0 0 0 5.73 1.044c2.064-.442 3.709-1.67 4.647-3.263.473-.802-.313-1.743-1.276-1.537L.894 1.885z"/></svg></svg><svg width="11" height="5" xmlns="http://www.w3.org/2000/svg" xmlns:xlink="http://www.w3.org/1999/xlink" xmlns:svgjs="http://svgjs.com/svgjs" fill="#008a99" x="980" y="626"><svg xmlns="http://www.w3.org/2000/svg" xmlns:xlink="http://www.w3.org/1999/xlink" width="11" height="5"><path paint-order="stroke fill markers" fill-rule="evenodd" d="M.895 1.886C-.07 2.091-.326 3.256.48 3.784A7.578 7.578 0 0 0 6.21 4.83c2.066-.442 3.71-1.67 4.649-3.263C11.33.764 10.545-.177 9.58.029L.895 1.886z"/></svg></svg><svg width="2" height="2" xmlns="http://www.w3.org/2000/svg" xmlns:xlink="http://www.w3.org/1999/xlink" xmlns:svgjs="http://svgjs.com/svgjs" viewBox="510 759 2 2" x="511" y="759"><svg width="1" height="1" xmlns="http://www.w3.org/2000/svg" xmlns:xlink="http://www.w3.org/1999/xlink" xmlns:svgjs="http://svgjs.com/svgjs" viewBox="0.008 0 0.984 1" x="511" y="759"><svg xmlns="http://www.w3.org/2000/svg" xmlns:xlink="http://www.w3.org/1999/xlink" width="1" height="1" viewBox="0 0.037 0.948 0.963"><path paint-order="stroke fill markers" fill-rule="evenodd" d="M0 .037h.948V1H0V.037z"/></svg></svg><svg width="2" height="2" xmlns="http://www.w3.org/2000/svg" xmlns:xlink="http://www.w3.org/1999/xlink" xmlns:svgjs="http://svgjs.com/svgjs" viewBox="510 759 2 2" x="510" y="759"><svg width="2" height="2" xmlns="http://www.w3.org/2000/svg" xmlns:xlink="http://www.w3.org/1999/xlink" xmlns:svgjs="http://svgjs.com/svgjs" viewBox="0.034 0 1.932 2" fill="#ffaa4a" x="510" y="759"><svg xmlns="http://www.w3.org/2000/svg" xmlns:xlink="http://www.w3.org/1999/xlink" width="2" height="2" viewBox="1 0.073 0.896 0.927"><path paint-order="stroke fill markers" fill-rule="evenodd" d="M1.447 1c.597 0 .598-.927 0-.927C.851.073.85 1 1.447 1"/></svg></svg></svg></svg><svg width="56" height="33" xmlns="http://www.w3.org/2000/svg" xmlns:xlink="http://www.w3.org/1999/xlink" xmlns:svgjs="http://svgjs.com/svgjs" fill="#008a99" x="933" y="547"><svg xmlns="http://www.w3.org/2000/svg" xmlns:xlink="http://www.w3.org/1999/xlink" width="56" height="33"><path paint-order="stroke fill markers" fill-rule="evenodd" d="M56 0s-6.062 29.357-21.69 28.446c-3.31-.194-2.187-6.11-2.187-6.11S8.908 36.15 1.964 32.333c-6.945-3.818 6.758-16.01 6.758-16.01L56 0z"/></svg></svg><svg width="50" height="20" xmlns="http://www.w3.org/2000/svg" xmlns:xlink="http://www.w3.org/1999/xlink" xmlns:svgjs="http://svgjs.com/svgjs" fill="#fff" x="961" y="633"><svg xmlns="http://www.w3.org/2000/svg" xmlns:xlink="http://www.w3.org/1999/xlink" width="50" height="20"><path paint-order="stroke fill markers" fill-rule="evenodd" d="M1.374 11.086c-1.506.359-1.88 2.393-.588 3.263 7.735 5.204 18.874 7.145 30.34 4.42C42.68 16.024 46.46 10.47 49.85 2.531c.582-1.362-.61-2.819-2.026-2.482L1.374 11.086z"/></svg></svg><svg width="25" height="12" xmlns="http://www.w3.org/2000/svg" xmlns:xlink="http://www.w3.org/1999/xlink" xmlns:svgjs="http://svgjs.com/svgjs" fill="#008a99" x="939" y="590"><svg xmlns="http://www.w3.org/2000/svg" xmlns:xlink="http://www.w3.org/1999/xlink" width="25" height="12"><path paint-order="stroke fill markers" fill-rule="evenodd" d="M23.436 7.34c.682-.142 1.224-.631 1.365-1.242.884-3.848-1.206-6.83-5.658-5.94C14.77 1.032 3.028 6.222.12 10.843c-.378.601.19 1.29.937 1.135L23.436 7.34z"/></svg></svg><svg width="21" height="9" xmlns="http://www.w3.org/2000/svg" xmlns:xlink="http://www.w3.org/1999/xlink" xmlns:svgjs="http://svgjs.com/svgjs" fill="#008a99" x="982" y="581"><svg xmlns="http://www.w3.org/2000/svg" xmlns:xlink="http://www.w3.org/1999/xlink" width="21" height="9"><path paint-order="stroke fill markers" fill-rule="evenodd" d="M3.22 8.944c-.529.164-1.127-.04-1.51-.519C-.714 5.404-.718 1.892 2.712.797c3.366-1.074 13.758-1.45 17.914 1.4.54.37.484 1.218-.094 1.397L3.22 8.944z"/></svg></svg><svg width="102" height="311" xmlns="http://www.w3.org/2000/svg" xmlns:xlink="http://www.w3.org/1999/xlink" xmlns:svgjs="http://svgjs.com/svgjs" fill="#fff" x="524" y="434"><svg xmlns="http://www.w3.org/2000/svg" xmlns:xlink="http://www.w3.org/1999/xlink" width="102" height="311"><path paint-order="stroke fill markers" fill-rule="evenodd" d="M102 311L19.024 7.15C17.623 1.993 12.314-1.056 7.16.337 1.992 1.734-1.063 7.063.34 12.234L81.37 311h20.63z"/></svg></svg><svg width="41" height="39" xmlns="http://www.w3.org/2000/svg" xmlns:xlink="http://www.w3.org/1999/xlink" xmlns:svgjs="http://svgjs.com/svgjs" fill="#fff" x="765" y="288"><svg xmlns="http://www.w3.org/2000/svg" xmlns:xlink="http://www.w3.org/1999/xlink" width="41" height="39"><path paint-order="stroke fill markers" fill-rule="evenodd" d="M7.261 38.406l4.811-14.557L0 14.302l15.435.043L20.852 0l4.73 14.583 15.418.68-12.512 8.971L32.6 39l-12.46-9.039L7.26 38.406z"/></svg></svg><svg width="29" height="29" xmlns="http://www.w3.org/2000/svg" xmlns:xlink="http://www.w3.org/1999/xlink" xmlns:svgjs="http://svgjs.com/svgjs" viewBox="0 0.5 29 28" fill="#fff" x="590" y="395"><svg xmlns="http://www.w3.org/2000/svg" xmlns:xlink="http://www.w3.org/1999/xlink" width="29" height="29" viewBox="0 1 29 28"><path paint-order="stroke fill markers" fill-rule="evenodd" d="M5.136 28.574L8.54 18.123l-8.54-6.854 10.918.03L14.748 1l3.346 10.472L29 11.96l-8.85 6.44L23.057 29l-8.814-6.488-9.108 6.063z"/></svg></svg><svg width="36" height="34" xmlns="http://www.w3.org/2000/svg" xmlns:xlink="http://www.w3.org/1999/xlink" xmlns:svgjs="http://svgjs.com/svgjs" viewBox="0.5 0 35 34" fill="#98ca3f" x="665" y="327"><svg xmlns="http://www.w3.org/2000/svg" xmlns:xlink="http://www.w3.org/1999/xlink" width="36" height="34" viewBox="0 0 35 34"><path paint-order="stroke fill markers" fill-rule="evenodd" d="M6.198 33.482l4.107-12.691L0 12.468l13.176.037L17.8 0l4.037 12.713L35 13.307l-10.682 7.82L27.83 34l-10.638-7.88-10.994 7.362z"/></svg></svg><svg width="42" height="39" xmlns="http://www.w3.org/2000/svg" xmlns:xlink="http://www.w3.org/1999/xlink" xmlns:svgjs="http://svgjs.com/svgjs" viewBox="0.5 0 41 39" fill="#fff" x="848" y="288"><svg xmlns="http://www.w3.org/2000/svg" xmlns:xlink="http://www.w3.org/1999/xlink" width="42" height="39" viewBox="0 0 41 39"><path paint-order="stroke fill markers" fill-rule="evenodd" d="M33.739 38.406L28.928 23.85 41 14.302l-15.435.043L20.148 0l-4.73 14.583L0 15.263l12.512 8.971L8.399 39l12.461-9.039 12.879 8.445z"/></svg></svg><svg width="29" height="29" xmlns="http://www.w3.org/2000/svg" xmlns:xlink="http://www.w3.org/1999/xlink" xmlns:svgjs="http://svgjs.com/svgjs" viewBox="0 0.5 29 28" fill="#fff" x="1036" y="395"><svg xmlns="http://www.w3.org/2000/svg" xmlns:xlink="http://www.w3.org/1999/xlink" width="29" height="29" viewBox="0 1 29 28"><path paint-order="stroke fill markers" fill-rule="evenodd" d="M23.863 28.574l-3.402-10.451L29 11.269l-10.917.03L14.25 1l-3.345 10.472L0 11.96l8.85 6.44L5.942 29l8.814-6.488 9.107 6.063z"/></svg></svg><svg width="35" height="34" xmlns="http://www.w3.org/2000/svg" xmlns:xlink="http://www.w3.org/1999/xlink" xmlns:svgjs="http://svgjs.com/svgjs" fill="#98ca3f" x="954" y="327"><svg xmlns="http://www.w3.org/2000/svg" xmlns:xlink="http://www.w3.org/1999/xlink" width="35" height="34"><path paint-order="stroke fill markers" fill-rule="evenodd" d="M28.8 33.482l-4.106-12.691L35 12.468l-13.176.037L17.2 0l-4.037 12.713L0 13.307l10.68 7.82L7.17 34l10.637-7.88 10.994 7.362z"/></svg></svg><svg width="237" height="284" xmlns="http://www.w3.org/2000/svg" xmlns:xlink="http://www.w3.org/1999/xlink" xmlns:svgjs="http://svgjs.com/svgjs" fill="#fff" x="823" y="457"><svg xmlns="http://www.w3.org/2000/svg" xmlns:xlink="http://www.w3.org/1999/xlink" width="237" height="284"><path paint-order="stroke fill markers" fill-rule="evenodd" d="M224.211 236.436c-10.712 10.103-23.768 17.674-38.648 21.676-52.154 14.026-106.906-21.053-122.294-78.35-15.388-57.299 14.416-115.12 66.57-129.147 13.1-3.523 26.36-3.946 39.124-1.699C143.69 11 96.319-8.583 49.788 3.61 30.245 8.731 13.318 18.813 0 32.15L74.47 284H237l-12.789-47.564z"/></svg></svg><svg width="22" height="11" xmlns="http://www.w3.org/2000/svg" xmlns:xlink="http://www.w3.org/1999/xlink" xmlns:svgjs="http://svgjs.com/svgjs" fill="#ff925b" x="747" y="629"><svg xmlns="http://www.w3.org/2000/svg" xmlns:xlink="http://www.w3.org/1999/xlink" width="22" height="11"><path paint-order="stroke fill markers" fill-rule="evenodd" d="M22 5.5c0 3.038-4.925 5.5-11 5.5S0 8.538 0 5.5 4.925 0 11 0s11 2.462 11 5.5"/></svg></svg><svg width="10" height="11" xmlns="http://www.w3.org/2000/svg" xmlns:xlink="http://www.w3.org/1999/xlink" xmlns:svgjs="http://svgjs.com/svgjs" viewBox="0.5 0 9 11" fill="#ff925b" x="819" y="616"><svg xmlns="http://www.w3.org/2000/svg" xmlns:xlink="http://www.w3.org/1999/xlink" width="10" height="11" viewBox="0 0 9 11"><path paint-order="stroke fill markers" fill-rule="evenodd" d="M.206 8.355C1.1 10.72 4.722 11.552 9 10.636L5.869 0C1.677 2.387-.746 5.837.206 8.355"/></svg></svg><svg width="128" height="128" xmlns="http://www.w3.org/2000/svg" xmlns:xlink="http://www.w3.org/1999/xlink" xmlns:svgjs="http://svgjs.com/svgjs" fill="#c9c9c9" x="882" y="504"><svg xmlns="http://www.w3.org/2000/svg" xmlns:xlink="http://www.w3.org/1999/xlink" width="128" height="128" viewBox="0 0 127 127"><path paint-order="stroke fill markers" fill-rule="evenodd" d="M92.356 49.237c11.643-3.13 23.282-4.728 34.644-4.932l-2.567-9.813c-3.173-12.122-8.258-23.235-14.838-33.106C96.85-.858 83.605-.436 70.525 3.083 19.97 16.677-9.556 71.472 2.806 127c13.009-35.673 45.865-66.015 89.549-77.763"/></svg></svg><svg width="47" height="63" xmlns="http://www.w3.org/2000/svg" xmlns:xlink="http://www.w3.org/1999/xlink" xmlns:svgjs="http://svgjs.com/svgjs" fill="#98ca3f" x="848" y="616"><svg xmlns="http://www.w3.org/2000/svg" xmlns:xlink="http://www.w3.org/1999/xlink" width="47" height="63"><path paint-order="stroke fill markers" fill-rule="evenodd" d="M44.7 24.442c5.593 16.95.635 33.852-11.073 37.75C21.917 66.09 7.892 55.51 2.3 38.558-3.293 21.609 1.665 4.706 13.374.809 25.082-3.092 39.109 7.49 44.7 24.441"/></svg></svg><svg width="47" height="20" xmlns="http://www.w3.org/2000/svg" xmlns:xlink="http://www.w3.org/1999/xlink" xmlns:svgjs="http://svgjs.com/svgjs" fill="#ff8867" x="774" y="638"><svg xmlns="http://www.w3.org/2000/svg" xmlns:xlink="http://www.w3.org/1999/xlink" width="47" height="20"><path paint-order="stroke fill markers" fill-rule="evenodd" d="M46.874 1.742c.442-.897-.346-1.902-1.35-1.72l-6.123 1.11c-1.472.267-2.981.249-4.45-.038-2.25-.44-5.238-.494-8.46-.06-4.058.547-7.54 1.74-9.542 3.116a11.815 11.815 0 0 1-4.58 1.885L1.019 8.093c-1.057.192-1.385 1.508-.537 2.151 2.342 1.774 5.102 3.216 8.155 4.269 1.154.397 2.233.974 3.216 1.683 3.072 2.215 10.955 4.425 16.762 3.643 6.123-.825 11.11-5.305 12.278-8.201.472-1.169 1.145-2.245 1.945-3.23 1.564-1.93 2.803-4.162 4.036-6.666"/></svg></svg><svg width="28" height="8" xmlns="http://www.w3.org/2000/svg" xmlns:xlink="http://www.w3.org/1999/xlink" xmlns:svgjs="http://svgjs.com/svgjs" fill="#fff" x="787" y="642"><svg xmlns="http://www.w3.org/2000/svg" xmlns:xlink="http://www.w3.org/1999/xlink" width="28" height="8"><path paint-order="stroke fill markers" fill-rule="evenodd" d="M.796 4.678C4.418 3.003 17.458.743 26.684.004c.917-.073 1.501.847 1.262 1.579l-2.78 2.2c-.117.356-.415.655-.821.818-2.476.988-11.74 4.334-20.921 3.148a1.643 1.643 0 0 1-.875-.386L.413 6.652c-.682-.6-.495-1.568.383-1.974"/></svg></svg><svg width="24" height="28" xmlns="http://www.w3.org/2000/svg" xmlns:xlink="http://www.w3.org/1999/xlink" xmlns:svgjs="http://svgjs.com/svgjs" fill="#98ca3f" x="651" y="576"><svg xmlns="http://www.w3.org/2000/svg" xmlns:xlink="http://www.w3.org/1999/xlink" width="24" height="28"><path paint-order="stroke fill markers" fill-rule="evenodd" d="M12.953 27.187a4.449 4.449 0 0 0 6.239-1.13l2.56-3.72-3.678-2.591-2.56 3.72-11.033-7.77 7.683-11.162 7.355 5.18-5.122 7.442 3.677 2.59 5.121-7.44c1.415-2.055.915-4.881-1.116-6.312L14.724.814a4.449 4.449 0 0 0-6.238 1.13L.804 13.104C-.61 15.16-.11 17.986 1.92 19.417l11.033 7.77z"/></svg></svg><svg width="24" height="28" xmlns="http://www.w3.org/2000/svg" xmlns:xlink="http://www.w3.org/1999/xlink" xmlns:svgjs="http://svgjs.com/svgjs" fill="#98ca3f" x="842" y="576"><svg xmlns="http://www.w3.org/2000/svg" xmlns:xlink="http://www.w3.org/1999/xlink" width="24" height="28"><path paint-order="stroke fill markers" fill-rule="evenodd" d="M12.953 27.187a4.448 4.448 0 0 0 6.238-1.13l2.56-3.72-3.677-2.591-2.56 3.72-11.033-7.77 7.682-11.162 7.356 5.18-5.122 7.442 3.677 2.59 5.121-7.44c1.415-2.055.915-4.881-1.116-6.312L14.724.814a4.448 4.448 0 0 0-6.238 1.13L.804 13.104C-.61 15.16-.11 17.986 1.92 19.417l11.033 7.77z"/></svg></svg><svg width="72" height="80" xmlns="http://www.w3.org/2000/svg" xmlns:xlink="http://www.w3.org/1999/xlink" xmlns:svgjs="http://svgjs.com/svgjs" fill="#272743" x="841" y="668"><svg xmlns="http://www.w3.org/2000/svg" xmlns:xlink="http://www.w3.org/1999/xlink" width="72" height="80"><path paint-order="stroke fill markers" fill-rule="evenodd" d="M71.434 80l-7.606-.723c2.234-23.83-2.58-46.704-14.305-57.87C31.097 3.861 1.442 8.152 1.144 8.197L0 .59C.343.537 8.517-.677 19.287.539c14.431 1.63 26.702 6.913 35.485 15.276C68.293 28.69 73.9 53.69 71.434 80"/></svg></svg><svg width="32" height="31" xmlns="http://www.w3.org/2000/svg" xmlns:xlink="http://www.w3.org/1999/xlink" xmlns:svgjs="http://svgjs.com/svgjs" viewBox="0.5 0 31 31" fill="#272743" x="825" y="657"><svg xmlns="http://www.w3.org/2000/svg" xmlns:xlink="http://www.w3.org/1999/xlink" width="32" height="31" viewBox="0 0 31 31"><path paint-order="stroke fill markers" fill-rule="evenodd" d="M31 15.5C31 24.06 24.06 31 15.5 31 6.938 31 0 24.06 0 15.5 0 6.94 6.939 0 15.5 0 24.06 0 31 6.94 31 15.5"/></svg></svg><svg width="624" height="13" xmlns="http://www.w3.org/2000/svg" xmlns:xlink="http://www.w3.org/1999/xlink" xmlns:svgjs="http://svgjs.com/svgjs" viewBox="545 738 624 13" x="545" y="738"><svg width="624" height="13" xmlns="http://www.w3.org/2000/svg" xmlns:xlink="http://www.w3.org/1999/xlink" xmlns:svgjs="http://svgjs.com/svgjs" viewBox="0 0.768 624 11.464" x="545" y="738"><svg xmlns="http://www.w3.org/2000/svg" xmlns:xlink="http://www.w3.org/1999/xlink" width="624" height="13" viewBox="0.329 0.733 623.537 11.456"><path paint-order="stroke fill markers" fill-rule="evenodd" d="M.329.733h623.537v11.456H.33V.733z"/></svg></svg><svg width="624" height="13" xmlns="http://www.w3.org/2000/svg" xmlns:xlink="http://www.w3.org/1999/xlink" xmlns:svgjs="http://svgjs.com/svgjs" viewBox="545 738 624 13" x="545" y="738"><svg width="624" height="13" xmlns="http://www.w3.org/2000/svg" xmlns:xlink="http://www.w3.org/1999/xlink" xmlns:svgjs="http://svgjs.com/svgjs" viewBox="0 0.768 624 11.464" fill="#98ca3f" x="545" y="738"><svg xmlns="http://www.w3.org/2000/svg" xmlns:xlink="http://www.w3.org/1999/xlink" width="624" height="13" viewBox="0.329 0.733 623.538 11.456"><path paint-order="stroke fill markers" fill-rule="evenodd" d="M620.592.733H3.604C1.795.733.329 2.21.329 4.033v4.856c0 1.822 1.466 3.3 3.275 3.3h616.988c1.809 0 3.275-1.478 3.275-3.3V4.032c0-1.822-1.466-3.3-3.275-3.3"/></svg></svg></svg></svg><svg width="25" height="12" xmlns="http://www.w3.org/2000/svg" xmlns:xlink="http://www.w3.org/1999/xlink" xmlns:svgjs="http://svgjs.com/svgjs" fill="#ff8d43" x="752" y="594"><svg xmlns="http://www.w3.org/2000/svg" xmlns:xlink="http://www.w3.org/1999/xlink" width="25" height="12"><path paint-order="stroke fill markers" fill-rule="evenodd" d="M23.435 7.34c.682.096 1.226-.632 1.366-1.243.884-3.847-1.205-6.828-5.658-5.939C14.772 1.032 3.03 6.223.121 10.844c-.38.601.189 1.289.936 1.134 0 0 11.856-6.133 22.378-4.639"/></svg></svg><svg width="21" height="9" xmlns="http://www.w3.org/2000/svg" xmlns:xlink="http://www.w3.org/1999/xlink" xmlns:svgjs="http://svgjs.com/svgjs" fill="#ff8d43" x="795" y="586"><svg xmlns="http://www.w3.org/2000/svg" xmlns:xlink="http://www.w3.org/1999/xlink" width="21" height="9"><path paint-order="stroke fill markers" fill-rule="evenodd" d="M3.145 8.85c-.42.371-1.126-.009-1.502-.46C-.73 5.534-.679 2.138 2.763.985c3.38-1.131 13.767-1.782 17.874.858.535.344.464 1.166-.116 1.354 0 0-10.899-.093-17.376 5.652"/></svg></svg><svg width="14" height="14" xmlns="http://www.w3.org/2000/svg" xmlns:xlink="http://www.w3.org/1999/xlink" xmlns:svgjs="http://svgjs.com/svgjs" fill="#272743" x="767" y="611"><svg xmlns="http://www.w3.org/2000/svg" xmlns:xlink="http://www.w3.org/1999/xlink" width="14" height="14"><path paint-order="stroke fill markers" fill-rule="evenodd" d="M14 7A7 7 0 1 1 0 7a7 7 0 0 1 14 0"/></svg></svg><svg width="13" height="14" xmlns="http://www.w3.org/2000/svg" xmlns:xlink="http://www.w3.org/1999/xlink" xmlns:svgjs="http://svgjs.com/svgjs" viewBox="0 0.5 13 13" fill="#272743" x="805" y="602"><svg xmlns="http://www.w3.org/2000/svg" xmlns:xlink="http://www.w3.org/1999/xlink" width="13" height="14" viewBox="0 0 13 13"><path paint-order="stroke fill markers" fill-rule="evenodd" d="M13 6.5A6.5 6.5 0 1 1 0 6.499 6.5 6.5 0 0 1 13 6.5"/></svg></svg><svg width="25" height="8" xmlns="http://www.w3.org/2000/svg" xmlns:xlink="http://www.w3.org/1999/xlink" xmlns:svgjs="http://svgjs.com/svgjs" fill="#272743" x="756" y="610"><svg xmlns="http://www.w3.org/2000/svg" xmlns:xlink="http://www.w3.org/1999/xlink" width="25" height="8"><path paint-order="stroke fill markers" fill-rule="evenodd" d="M25 7.573S22.435-3.091 7.191.89L.288 2.88l3.739 1.423L0 6.578 5.466 8l2.3-3.13S18.072 1.744 25 7.574"/></svg></svg><svg width="19" height="15" xmlns="http://www.w3.org/2000/svg" xmlns:xlink="http://www.w3.org/1999/xlink" xmlns:svgjs="http://svgjs.com/svgjs" fill="#272743" x="801" y="598"><svg xmlns="http://www.w3.org/2000/svg" xmlns:xlink="http://www.w3.org/1999/xlink" width="19" height="15"><path paint-order="stroke fill markers" fill-rule="evenodd" d="M.293 15S-2.754 4.885 10.81 1.414L17.04 0l-2.2 2.869L19 2.98l-3.523 3.64-3.235-1.602s-9.377 1.98-11.95 9.98"/></svg></svg><svg width="13" height="13" xmlns="http://www.w3.org/2000/svg" xmlns:xlink="http://www.w3.org/1999/xlink" xmlns:svgjs="http://svgjs.com/svgjs" fill="#272743" x="954" y="608"><svg xmlns="http://www.w3.org/2000/svg" xmlns:xlink="http://www.w3.org/1999/xlink" width="13" height="13"><path paint-order="stroke fill markers" fill-rule="evenodd" d="M13 6.5a6.5 6.5 0 1 1-13 0 6.5 6.5 0 1 1 13 0"/></svg></svg><svg width="13" height="13" xmlns="http://www.w3.org/2000/svg" xmlns:xlink="http://www.w3.org/1999/xlink" xmlns:svgjs="http://svgjs.com/svgjs" fill="#272743" x="992" y="596"><svg xmlns="http://www.w3.org/2000/svg" xmlns:xlink="http://www.w3.org/1999/xlink" width="13" height="13"><path paint-order="stroke fill markers" fill-rule="evenodd" d="M13 6.5A6.5 6.5 0 0 1 6.5 13 6.5 6.5 0 1 1 13 6.5"/></svg></svg><svg width="22" height="9" xmlns="http://www.w3.org/2000/svg" xmlns:xlink="http://www.w3.org/1999/xlink" xmlns:svgjs="http://svgjs.com/svgjs" fill="#272743" x="946" y="607"><svg xmlns="http://www.w3.org/2000/svg" xmlns:xlink="http://www.w3.org/1999/xlink" width="22" height="9"><path paint-order="stroke fill markers" fill-rule="evenodd" d="M21.897 4.14C20.31 2.12 16.537-1.176 9.53.425c-3.223.737-6.09 2.578-8.151 5.171L.102 7.2a.473.473 0 0 0 .111.69l1.135.74a2.266 2.266 0 0 0 3.31-.98l.465-1.044a.47.47 0 0 1 .214-.226c1.154-.601 8.885-4.375 16.02-1.514.442.177.836-.35.54-.726"/></svg></svg><svg width="20" height="11" xmlns="http://www.w3.org/2000/svg" xmlns:xlink="http://www.w3.org/1999/xlink" xmlns:svgjs="http://svgjs.com/svgjs" fill="#272743" x="986" y="593"><svg xmlns="http://www.w3.org/2000/svg" width="20" height="11"><path paint-order="stroke fill markers" fill-rule="evenodd" d="M.004 10.468C.308 7.889 1.79 3.053 8.434.747c3.054-1.06 6.371-.982 9.395.173l1.871.713c.253.097.372.4.254.653l-.57 1.237c-.588 1.276-2.133 1.703-3.251.899l-.915-.658a.456.456 0 0 0-.29-.084c-1.265.089-9.606.902-14.107 7.129-.28.388-.874.14-.817-.341"/></svg></svg></svg>