<svg id="SvgjsSvg108498" width="284" height="164" xmlns="http://www.w3.org/2000/svg" version="1.1" xmlns:xlink="http://www.w3.org/1999/xlink" xmlns:svgjs="http://svgjs.com/svgjs" viewBox="141 361 284 164"><defs id="SvgjsDefs108499"></defs><svg id="SvgjsSvg108500" width="4" height="18" xmlns="http://www.w3.org/2000/svg" version="1.1" xmlns:xlink="http://www.w3.org/1999/xlink" xmlns:svgjs="http://svgjs.com/svgjs" viewBox="0 0 4 18.00006103515625" fill="#ffffff" opacity="1" x="344" y="380"><defs id="SvgjsDefs108501"></defs><svg version="1.1" xmlns="http://www.w3.org/2000/svg" xmlns:xlink="http://www.w3.org/1999/xlink" width="4" height="18" viewBox="-0.0000925064 -0.0000621676 3.99998 18"><g><path fill="#ffffff" stroke="none" paint-order="stroke fill markers" fill-rule="evenodd" d=" M -0.00009250640869140625 17.999970197677612 C -0.00009250640869140625 17.999970197677612 3.9998836517333984 17.999970197677612 3.9998836517333984 17.999970197677612 C 3.9998836517333984 17.999970197677612 3.9998836517333984 -0.00006216764450073242 3.9998836517333984 -0.00006216764450073242 C 3.9998836517333984 -0.00006216764450073242 -0.00009250640869140625 -0.00006216764450073242 -0.00009250640869140625 -0.00006216764450073242 C -0.00009250640869140625 -0.00006216764450073242 -0.00009250640869140625 17.999970197677612 -0.00009250640869140625 17.999970197677612 Z"></path></g></svg></svg><svg id="SvgjsSvg108504" width="5" height="6" xmlns="http://www.w3.org/2000/svg" version="1.1" xmlns:xlink="http://www.w3.org/1999/xlink" xmlns:svgjs="http://svgjs.com/svgjs" viewBox="0 0.5 5 5" fill="#ffffff" opacity="1" x="343" y="370"><defs id="SvgjsDefs108505"></defs><svg version="1.1" xmlns="http://www.w3.org/2000/svg" xmlns:xlink="http://www.w3.org/1999/xlink" width="5" height="6" viewBox="-0.000086546 0.999987 4.99997 4.99999"><g><path fill="#ffffff" stroke="none" paint-order="stroke fill markers" fill-rule="evenodd" d=" M 2.5571669340133667 5.999974489212036 C 3.779137134552002 5.999974489212036 4.999883651733398 5.147152364253998 4.999883651733398 3.4800515174865723 C 4.999883651733398 1.8526780009269714 3.779137134552002 0.9999874234199524 2.5194774866104126 0.9999874234199524 C 1.2595731019973755 0.9999874234199524 -0.00008654594421386719 1.8142661452293396 -0.00008654594421386719 3.4800515174865723 C -0.00008654594421386719 5.18556421995163 1.2987309694290161 5.999974489212036 2.5571669340133667 5.999974489212036 C 2.5571669340133667 5.999974489212036 2.5571669340133667 5.999974489212036 2.5571669340133667 5.999974489212036"></path></g></svg></svg><svg id="SvgjsSvg108508" width="16" height="19" xmlns="http://www.w3.org/2000/svg" version="1.1" xmlns:xlink="http://www.w3.org/1999/xlink" xmlns:svgjs="http://svgjs.com/svgjs" viewBox="0.083251953125 0 15.83349609375 19.00006103515625" fill="#ffffff" opacity="1" x="326" y="380"><defs id="SvgjsDefs108509"></defs><svg version="1.1" xmlns="http://www.w3.org/2000/svg" xmlns:xlink="http://www.w3.org/1999/xlink" width="16" height="19" viewBox="-0.000229955 -0.0000621676 15.0002 18"><g><path fill="#ffffff" stroke="none" paint-order="stroke fill markers" fill-rule="evenodd" d=" M 14.96297013759613 14.490021109580994 C 14.96297013759613 14.490021109580994 5.783387064933777 14.490021109580994 5.783387064933777 14.490021109580994 C 5.783387064933777 14.490021109580994 9.440731883049011 9.149194598197937 9.440731883049011 9.149194598197937 C 9.440731883049011 9.149194598197937 14.999925374984741 0.5219181180000305 14.999925374984741 0.5219181180000305 C 14.999925374984741 0.5219181180000305 14.999925374984741 -0.00006216764450073242 14.999925374984741 -0.00006216764450073242 C 14.999925374984741 -0.00006216764450073242 0.5594828128814697 -0.00006216764450073242 0.5594828128814697 -0.00006216764450073242 C 0.5594828128814697 -0.00006216764450073242 0.5594828128814697 3.3236157298088074 0.5594828128814697 3.3236157298088074 C 0.5594828128814697 3.3236157298088074 9.14117419719696 3.3236157298088074 9.14117419719696 3.3236157298088074 C 9.14117419719696 3.3236157298088074 5.222695350646973 8.999888241291046 5.222695350646973 8.999888241291046 C 5.222695350646973 8.999888241291046 -0.00022995471954345703 17.1793771982193 -0.00022995471954345703 17.1793771982193 C -0.00022995471954345703 17.1793771982193 -0.00022995471954345703 17.999970197677612 -0.00022995471954345703 17.999970197677612 C -0.00022995471954345703 17.999970197677612 14.96297013759613 17.999970197677612 14.96297013759613 17.999970197677612 C 14.96297013759613 17.999970197677612 14.96297013759613 14.490021109580994 14.96297013759613 14.490021109580994 Z"></path></g></svg></svg><svg id="SvgjsSvg108512" width="15" height="24" xmlns="http://www.w3.org/2000/svg" version="1.1" xmlns:xlink="http://www.w3.org/1999/xlink" xmlns:svgjs="http://svgjs.com/svgjs" viewBox="0.00006103515625 0 14.9998779296875 24" fill="#ffffff" opacity="1" x="308" y="375"><defs id="SvgjsDefs108513"></defs><svg version="1.1" xmlns="http://www.w3.org/2000/svg" xmlns:xlink="http://www.w3.org/1999/xlink" width="15" height="24" viewBox="-0.000122666 -0.0000492334 14.9999 24"><g><path fill="#ffffff" stroke="none" paint-order="stroke fill markers" fill-rule="evenodd" d=" M 3.750466823577881 16.284209728240967 C 3.750466823577881 23.700460374355316 8.686805486679077 25.19102454185486 14.99978792667389 23.189793169498444 C 14.99978792667389 23.189793169498444 14.580064535140991 19.971616327762604 14.580064535140991 19.971616327762604 C 10.790317177772522 21.34549790620804 7.844911336898804 21.03175723552704 7.844911336898804 16.20633363723755 C 7.844911336898804 16.20633363723755 7.844911336898804 8.083673179149628 7.844911336898804 8.083673179149628 C 7.844911336898804 8.083673179149628 14.234985828399658 8.083673179149628 14.234985828399658 8.083673179149628 C 14.234985828399658 8.083673179149628 14.234985828399658 4.63081568479538 14.234985828399658 4.63081568479538 C 14.234985828399658 4.63081568479538 7.844911336898804 4.63081568479538 7.844911336898804 4.63081568479538 C 7.844911336898804 4.63081568479538 7.844911336898804 -0.000049233436584472656 7.844911336898804 -0.000049233436584472656 C 7.844911336898804 -0.000049233436584472656 3.750466823577881 -0.000049233436584472656 3.750466823577881 -0.000049233436584472656 C 3.750466823577881 -0.000049233436584472656 3.750466823577881 4.63081568479538 3.750466823577881 4.63081568479538 C 3.750466823577881 4.63081568479538 -0.0001226663589477539 4.63081568479538 -0.0001226663589477539 4.63081568479538 C -0.0001226663589477539 4.63081568479538 -0.0001226663589477539 8.083673179149628 -0.0001226663589477539 8.083673179149628 C -0.0001226663589477539 8.083673179149628 3.750466823577881 8.083673179149628 3.750466823577881 8.083673179149628 C 3.750466823577881 8.083673179149628 3.750466823577881 16.284209728240967 3.750466823577881 16.284209728240967 Z"></path></g></svg></svg><svg id="SvgjsSvg108516" width="20" height="19" xmlns="http://www.w3.org/2000/svg" version="1.1" xmlns:xlink="http://www.w3.org/1999/xlink" xmlns:svgjs="http://svgjs.com/svgjs" viewBox="0.00006103515625 0 19.9998779296875 19" fill="#ffffff" opacity="1" x="288" y="379"><defs id="SvgjsDefs108517"></defs><svg version="1.1" xmlns="http://www.w3.org/2000/svg" xmlns:xlink="http://www.w3.org/1999/xlink" width="20" height="19" viewBox="-0.00000345707 -0.0000306312 19.9999 19"><g><path fill="#ffffff" stroke="none" paint-order="stroke fill markers" fill-rule="evenodd" d=" M 10.153142094612122 3.3527955412864685 C 11.335709691047668 3.3527955412864685 12.747840285301208 3.5439339876174927 14.008478879928589 4.114849925041199 C 14.008478879928589 4.114849925041199 14.008478879928589 9.520792424678802 14.008478879928589 9.520792424678802 C 13.892718434333801 12.908533930778503 12.290182709693909 15.306643962860107 9.198669075965881 15.306643962860107 C 5.800745129585266 15.306643962860107 4.160519957542419 12.679772913455963 4.160519957542419 9.329785525798798 C 4.275301456451416 5.370996534824371 6.64043664932251 3.3527955412864685 10.153142094612122 3.3527955412864685 C 10.153142094612122 3.3527955412864685 10.153142094612122 3.3527955412864685 10.153142094612122 3.3527955412864685 M 8.319819688796997 18.999970197677612 C 11.03052306175232 18.999970197677612 13.626444935798645 17.552553594112396 14.656541585922241 15.002374708652496 C 14.656541585922241 15.002374708652496 14.656541585922241 15.763113617897034 14.656541585922241 15.763113617897034 C 14.656541585922241 18.81001567840576 17.367244958877563 19.11323255300522 19.999877333641052 18.617693305015564 C 19.999877333641052 18.617693305015564 19.999877333641052 15.802051663398743 19.999877333641052 15.802051663398743 C 17.976394534111023 15.992006182670593 18.014083981513977 14.926866471767426 18.014083981513977 13.251872777938843 C 18.014083981513977 13.251872777938843 18.014083981513977 1.7155559659004211 18.014083981513977 1.7155559659004211 C 15.609790921211243 0.6504162549972534 13.090716361999512 0.0028081536293029785 10.458083987236023 0.0028081536293029785 C 4.4657065868377686 -0.1116381287574768 0.11453330516815186 3.2383492588996887 -0.0000034570693969726562 9.329785525798798 C -0.0000034570693969726562 14.506967008113861 2.7104551792144775 18.999970197677612 8.319819688796997 18.999970197677612 C 8.319819688796997 18.999970197677612 8.319819688796997 18.999970197677612 8.319819688796997 18.999970197677612"></path></g></svg></svg><svg id="SvgjsSvg108520" width="8" height="27" xmlns="http://www.w3.org/2000/svg" version="1.1" xmlns:xlink="http://www.w3.org/1999/xlink" xmlns:svgjs="http://svgjs.com/svgjs" viewBox="0 0 8 27" fill="#ffffff" opacity="1" x="279" y="371"><defs id="SvgjsDefs108521"></defs><svg version="1.1" xmlns="http://www.w3.org/2000/svg" xmlns:xlink="http://www.w3.org/1999/xlink" width="8" height="27" viewBox="-0.00019455 -0.0000125766 7.99995 27"><g><path fill="#ffffff" stroke="none" paint-order="stroke fill markers" fill-rule="evenodd" d=" M 7.999757766723633 26.749898493289948 C 7.999757766723633 26.749898493289948 7.850713133811951 23.55355852842331 7.850713133811951 23.55355852842331 C 4.777799487113953 24.047519207000732 4.001005291938782 23.09603649377823 4.001005291938782 20.051765382289886 C 4.001005291938782 20.051765382289886 4.001005291938782 -0.000012576580047607422 4.001005291938782 -0.000012576580047607422 C 4.001005291938782 -0.000012576580047607422 -0.000194549560546875 -0.000012576580047607422 -0.000194549560546875 -0.000012576580047607422 C -0.000194549560546875 -0.000012576580047607422 -0.000194549560546875 20.090703427791595 -0.000194549560546875 20.090703427791595 C -0.000194549560546875 26.216999769210815 2.5196142196655273 27.662443161010742 7.999757766723633 26.749898493289948 C 7.999757766723633 26.749898493289948 7.999757766723633 26.749898493289948 7.999757766723633 26.749898493289948"></path></g></svg></svg><svg id="SvgjsSvg108524" width="20" height="26" xmlns="http://www.w3.org/2000/svg" version="1.1" xmlns:xlink="http://www.w3.org/1999/xlink" xmlns:svgjs="http://svgjs.com/svgjs" viewBox="0.00006103515625 0 19.9998779296875 25.99993896484375" fill="#ffffff" opacity="1" x="256" y="371"><defs id="SvgjsDefs108525"></defs><svg version="1.1" xmlns="http://www.w3.org/2000/svg" xmlns:xlink="http://www.w3.org/1999/xlink" width="20" height="26" viewBox="-0.0000574589 -0.0000125766 19.9999 26"><g><path fill="#ffffff" stroke="none" paint-order="stroke fill markers" fill-rule="evenodd" d=" M 4.282589554786682 3.75185227394104 C 4.282589554786682 3.75185227394104 10.80090606212616 3.75185227394104 10.80090606212616 3.75185227394104 C 13.818753957748413 3.75185227394104 15.829020977020264 6.0548534989356995 15.829020977020264 9.063343703746796 C 15.829020977020264 12.071702361106873 13.742640852928162 14.412720799446106 10.80090606212616 14.412720799446106 C 10.80090606212616 14.412720799446106 4.282589554786682 14.412720799446106 4.282589554786682 14.412720799446106 C 4.282589554786682 14.412720799446106 4.282589554786682 3.75185227394104 4.282589554786682 3.75185227394104 Z M 4.356500029563904 18.201418936252594 C 4.356500029563904 18.201418936252594 10.80090606212616 18.201418936252594 10.80090606212616 18.201418936252594 C 16.53655469417572 18.201418936252594 19.999823331832886 14.039783775806427 19.999823331832886 9.174895942211151 C 19.999823331832886 4.23528915643692 16.611444115638733 -0.000012576580047607422 10.80090606212616 -0.000012576580047607422 C 10.80090606212616 -0.000012576580047607422 -0.00005745887756347656 -0.000012576580047607422 -0.00005745887756347656 -0.000012576580047607422 C -0.00005745887756347656 -0.000012576580047607422 -0.00005745887756347656 25.99994647502899 -0.00005745887756347656 25.99994647502899 C -0.00005745887756347656 25.99994647502899 4.356500029563904 25.99994647502899 4.356500029563904 25.99994647502899 C 4.356500029563904 25.99994647502899 4.356500029563904 18.201418936252594 4.356500029563904 18.201418936252594 Z"></path></g></svg></svg><svg id="SvgjsSvg108528" width="42" height="47" xmlns="http://www.w3.org/2000/svg" version="1.1" xmlns:xlink="http://www.w3.org/1999/xlink" xmlns:svgjs="http://svgjs.com/svgjs" viewBox="0.0543212890625 0 41.891357421875 47.00006103515625" fill="#98ca3f" opacity="1" x="204" y="361"><defs id="SvgjsDefs108529"></defs><svg version="1.1" xmlns="http://www.w3.org/2000/svg" xmlns:xlink="http://www.w3.org/1999/xlink" width="42" height="47" viewBox="0.999879 0.999938 41 46"><g><path fill="#98ca3f" stroke="none" paint-order="stroke fill markers" fill-rule="evenodd" d=" M 18.881686687469482 44.841776847839355 C 21.773984670639038 47.71937733888626 26.462894558906555 47.71937733888626 29.356660962104797 44.841776847839355 C 29.356660962104797 44.841776847839355 34.59402573108673 39.63118231296539 34.59402573108673 39.63118231296539 C 34.59402573108673 39.63118231296539 29.356660962104797 34.42058777809143 29.356660962104797 34.42058777809143 C 29.356660962104797 34.42058777809143 24.119051456451416 39.63118231296539 24.119051456451416 39.63118231296539 C 24.119051456451416 39.63118231296539 8.406712412834167 23.999530255794525 8.406712412834167 23.999530255794525 C 8.406712412834167 23.999530255794525 24.119051456451416 8.367746651172638 24.119051456451416 8.367746651172638 C 24.119051456451416 8.367746651172638 34.59402573108673 18.788935720920563 34.59402573108673 18.788935720920563 C 34.59402573108673 18.788935720920563 24.119051456451416 29.20999324321747 24.119051456451416 29.20999324321747 C 24.119051456451416 29.20999324321747 29.356660962104797 34.42058777809143 29.356660962104797 34.42058777809143 C 29.356660962104797 34.42058777809143 39.831390500068665 23.999530255794525 39.831390500068665 23.999530255794525 C 42.72270953655243 21.12192976474762 42.72270953655243 16.45712560415268 39.831390500068665 13.5783411860466 C 39.831390500068665 13.5783411860466 29.356660962104797 3.1571521162986755 29.356660962104797 3.1571521162986755 C 26.462894558906555 0.2808670997619629 21.773984670639038 0.2808670997619629 18.881686687469482 3.1571521162986755 C 18.881686687469482 3.1571521162986755 3.169102907180786 18.788935720920563 3.169102907180786 18.788935720920563 C 0.27680492401123047 21.667588591575623 0.27680492401123047 26.332524299621582 3.169102907180786 29.20999324321747 C 3.169102907180786 29.20999324321747 18.881686687469482 44.841776847839355 18.881686687469482 44.841776847839355 Z"></path></g></svg></svg><svg id="SvgjsSvg108532" width="284" height="103" xmlns="http://www.w3.org/2000/svg" version="1.1" xmlns:xlink="http://www.w3.org/1999/xlink" xmlns:svgjs="http://svgjs.com/svgjs" viewBox="0 0.1383056640625 284 102.72344970703125" fill="#ffffff" opacity="1" x="141" y="422"><defs id="SvgjsDefs108533"></defs><svg version="1.1" xmlns="http://www.w3.org/2000/svg" xmlns:xlink="http://www.w3.org/1999/xlink" width="284" height="103" viewBox="0.999888 0.999905 282 102"><g><path fill="#ffffff" stroke="none" paint-order="stroke fill markers" fill-rule="evenodd" d=" M 136.6209590435028 66.73429834842682 C 135.18582320213318 71.08325707912445 133.12049043178558 74.76540178060532 130.43107914924622 77.77625983953476 C 127.74044418334961 80.7918536067009 124.46831488609314 83.10248458385468 120.6146912574768 84.71302002668381 C 116.76008868217468 86.32355546951294 112.41748118400574 87.12757349014282 107.58319771289825 87.12757349014282 C 102.74915897846222 87.12757349014282 98.39358043670654 86.32355546951294 94.51744103431702 84.71302002668381 C 93.51671278476715 84.29601460695267 92.5575897693634 83.83007353544235 91.63395357131958 83.31993252038956 C 88.98002910614014 81.85751950740814 86.64573073387146 80.0116456747055 84.63375055789948 77.77625983953476 C 81.91937613487244 74.76540178060532 79.83397495746613 71.08325707912445 78.37387597560883 66.73429834842682 C 76.91475594043732 62.38652354478836 76.18544065952301 57.477304220199585 76.18544065952301 52.000589191913605 C 76.18544065952301 46.52611047029495 76.91475594043732 41.615707218647 78.37387597560883 37.26674848794937 C 79.83397495746613 32.91910523176193 81.91937613487244 29.226042091846466 84.63375055789948 26.190190017223358 C 86.74876487255096 23.823388278484344 89.22745788097382 21.90345323085785 92.0507401227951 20.402759909629822 C 92.84882640838623 19.97865092754364 93.6635547876358 19.57480025291443 94.51744103431702 19.22001677751541 C 98.39358043670654 17.610665261745453 102.74915897846222 16.804147839546204 107.58319771289825 16.804147839546204 C 112.41748118400574 16.804147839546204 116.76008868217468 17.610665261745453 120.6146912574768 19.22001677751541 C 124.46831488609314 20.830552220344543 127.74044418334961 23.153154015541077 130.43107914924622 26.190190017223358 C 133.12049043178558 29.226042091846466 135.18582320213318 32.91910523176193 136.6209590435028 37.26674848794937 C 138.05756330490112 41.615707218647 138.77635490894318 46.52611047029495 138.77635490894318 52.000589191913605 C 138.77635490894318 57.477304220199585 138.05756330490112 62.38652354478836 136.6209590435028 66.73429834842682 C 136.6209590435028 66.73429834842682 136.6209590435028 66.73429834842682 136.6209590435028 66.73429834842682 Z M 282.999920129776 8.195945739746094 C 282.999920129776 4.831488132476807 280.29631412029266 2.1038517355918884 276.96251118183136 2.1038517355918884 C 276.96251118183136 2.1038517355918884 236.70651030540466 2.1038517355918884 236.70651030540466 2.1038517355918884 C 236.70651030540466 2.1038517355918884 231.53008496761322 2.1038517355918884 231.53008496761322 2.1038517355918884 C 231.53008496761322 2.1038517355918884 220.6148294210434 2.1038517355918884 220.6148294210434 2.1038517355918884 C 220.6148294210434 2.1038517355918884 220.5984320640564 2.1038517355918884 220.5984320640564 2.1038517355918884 C 220.5984320640564 2.1038517355918884 220.49295055866241 2.1038517355918884 220.49295055866241 2.1038517355918884 C 220.49295055866241 2.1038517355918884 220.49295055866241 2.120558261871338 220.49295055866241 2.120558261871338 C 220.49295055866241 2.120558261871338 220.49295055866241 62.767748057842255 220.49295055866241 62.767748057842255 C 220.49295055866241 64.1021654009819 220.52843737602234 65.53958439826965 220.59598469734192 67.08079433441162 C 220.60063469409943 67.17998111248016 220.6101794242859 67.28153574466705 220.6148294210434 67.38059097528458 C 220.6148294210434 67.38059097528458 220.6148294210434 71.34845674037933 220.6148294210434 71.34845674037933 C 220.6148294210434 71.34845674037933 184.62923872470856 25.093347370624542 184.62923872470856 25.093347370624542 C 184.62923872470856 25.093347370624542 169.0527285337448 5.0728777050971985 169.0527285337448 5.0728777050971985 C 168.55077362060547 4.428952932357788 168.0948292016983 3.911576807498932 167.68391633033752 3.5196969509124756 C 167.27398240566254 3.1301849484443665 166.85132217407227 2.830256760120392 166.41911721229553 2.622411787509918 C 165.98568856716156 2.4145668148994446 165.4964599609375 2.2770997285842896 164.94824981689453 2.2077742218971252 C 164.40101861953735 2.139764189720154 163.71771383285522 2.1038517355918884 162.89588809013367 2.1038517355918884 C 162.89588809013367 2.1038517355918884 153.25130534172058 2.1038517355918884 153.25130534172058 2.1038517355918884 C 153.25130534172058 2.1038517355918884 153.25130534172058 29.795905649662018 153.25130534172058 29.795905649662018 C 150.90183329582214 24.356287002563477 147.7682249546051 19.596374034881592 143.83775401115417 15.528137564659119 C 139.4596596956253 10.996459424495697 134.19341599941254 7.442047297954559 128.03755450248718 4.865032732486725 C 121.88071405887604 2.2902544736862183 115.06186091899872 0.999905526638031 107.58319771289825 0.999905526638031 C 100.103555560112 0.999905526638031 93.27393400669098 2.2770997285842896 87.09580147266388 4.830304205417633 C 84.34251391887665 5.968978941440582 81.7762051820755 7.316551029682159 79.37803053855896 8.850657403469086 C 76.39028525352478 10.759937107563019 73.66636610031128 12.967829525470734 71.22560727596283 15.493540585041046 C 66.82377350330353 20.047976434230804 63.416794300079346 25.44221121072769 60.99977493286133 31.676508009433746 C 58.58275556564331 37.911988735198975 57.37351167201996 44.6862878203392 57.37351167201996 52.000589191913605 C 57.37351167201996 59.31607449054718 58.58275556564331 66.09155750274658 60.99977493286133 72.32453882694244 C 62.558258056640625 76.34607595205307 64.53597509860992 80.01282960176468 66.91971027851105 83.33545511960983 C 65.44664025306702 84.2266891002655 63.89770185947418 84.96861672401428 62.258700370788574 85.5409796833992 C 60.54848051071167 86.13833665847778 58.67746865749359 86.5756003856659 56.64884638786316 86.85158693790436 C 54.61900043487549 87.12757349014282 52.35004675388336 87.26740843057632 49.84296429157257 87.26740843057632 C 45.64597511291504 87.26740843057632 41.723825216293335 86.47286182641983 38.07626986503601 84.88508409261703 C 34.427735567092896 83.2983587384224 31.25864040851593 81.00916999578476 28.568005442619324 78.0187017917633 C 25.877370476722717 75.02823358774185 23.74571406841278 71.34727281332016 22.171812534332275 66.97687184810638 C 20.59913468360901 62.605155408382416 19.811572074890137 57.61463975906372 19.811572074890137 52.000589191913605 C 19.811572074890137 46.5728098154068 20.59913468360901 41.683848798274994 22.171812534332275 37.336073994636536 C 23.74571406841278 32.98829919099808 25.934149384498596 29.29536759853363 28.738586902618408 26.259515523910522 C 31.542779684066772 23.22247952222824 34.89665102958679 20.889090836048126 38.795061469078064 19.254613757133484 C 42.69494032859802 17.622636079788208 46.97000050544739 16.804147839546204 51.621710419654846 16.804147839546204 C 51.621710419654846 16.804147839546204 51.70589983463287 16.804147839546204 51.70589983463287 16.804147839546204 C 55.71688914299011 16.81019902229309 58.99366843700409 13.591495990753174 58.99366843700409 9.54364937543869 C 58.99366843700409 9.54364937543869 58.99366843700409 1.4551912546157837 58.99366843700409 1.4551912546157837 C 58.99366843700409 1.4551912546157837 58.99366843700409 1.4312496185302734 58.99366843700409 1.4312496185302734 C 58.74623966217041 1.4002044200897217 58.48559510707855 1.3894175291061401 58.235718965530396 1.3619241118431091 C 57.565385222435 1.2902307510375977 56.885751485824585 1.2281403541564941 56.19877564907074 1.1778892278671265 C 55.8541864156723 1.152895212173462 55.51424717903137 1.1218500137329102 55.16500794887543 1.1014601588249207 C 54.94694757461548 1.0906732678413391 54.718608260154724 1.0931726694107056 54.49932420253754 1.082385778427124 C 53.59575641155243 1.042921543121338 52.69341230392456 0.999905526638031 51.7577840089798 0.999905526638031 C 44.23188662528992 0.999905526638031 37.358701944351196 2.254473567008972 31.133090496063232 4.762162625789642 C 24.908702731132507 7.269983232021332 19.56047224998474 10.777827560901642 15.092314839363098 15.285695612430573 C 10.621954798698425 19.79579997062683 7.1579519510269165 25.166224658489227 4.695901036262512 31.400521457195282 C 2.232626438140869 37.63600218296051 0.9998878240585327 44.50225293636322 0.9998878240585327 52.000589191913605 C 0.9998878240585327 59.409210085868835 2.1058528423309326 66.24086385965347 4.31802761554718 72.49778681993484 C 6.529223442077637 78.75589370727539 9.711289644241333 84.13710528612137 13.860799908638 88.64615726470947 C 18.010310173034668 93.15639317035675 23.014930367469788 96.6760767698288 28.877107858657837 99.20533961057663 C 34.73561429977417 101.73710185289383 41.33640706539154 102.99995738267899 48.678751945495605 102.99995738267899 C 56.887954115867615 102.99995738267899 63.922420263290405 101.66659241914749 69.78337407112122 98.99867856502533 C 72.70136940479279 97.66886538267136 75.39200437068939 96.04767459630966 77.85283160209656 94.13602703809738 C 80.67709279060364 96.1038453578949 83.75025117397308 97.78844201564789 87.09580147266388 99.17074263095856 C 93.27393400669098 101.7239471077919 100.103555560112 102.99995738267899 107.58319771289825 102.99995738267899 C 115.06186091899872 102.99995738267899 121.88071405887604 101.7239471077919 128.03755450248718 99.17074263095856 C 134.19341599941254 96.61753815412521 139.4596596956253 93.06312602758408 143.83775401115417 88.50869017839432 C 147.7682249546051 84.4203269481659 150.90183329582214 79.64962708950043 153.25130534172058 74.20750904083252 C 153.25130534172058 74.20750904083252 153.25130534172058 101.8971951007843 153.25130534172058 101.8971951007843 C 153.25130534172058 101.8971951007843 169.4626624584198 101.8971951007843 169.4626624584198 101.8971951007843 C 169.4626624584198 101.8971951007843 169.4626624584198 40.61449956893921 169.4626624584198 40.61449956893921 C 169.4626624584198 39.41860169172287 169.42815458774567 38.094708144664764 169.3596283197403 36.644265949726105 C 169.29208099842072 35.197507083415985 169.19027054309845 33.736277997493744 169.0527285337448 32.261894166469574 C 169.0527285337448 32.261894166469574 177.70245671272278 43.38041627407074 177.70245671272278 43.38041627407074 C 177.70245671272278 43.38041627407074 220.76778984069824 98.72269201278687 220.76778984069824 98.72269201278687 C 221.67845499515533 99.9185898900032 222.61383855342865 100.74786502122879 223.5719826221466 101.20657098293304 C 224.47310304641724 101.64028292894363 225.60525488853455 101.86128264665604 226.95057237148285 101.88640820980072 C 227.03598546981812 101.88877606391907 227.11160910129547 101.8971951007843 227.19702219963074 101.8971951007843 C 227.19702219963074 101.8971951007843 229.7880493402481 101.8971951007843 229.7880493402481 101.8971951007843 C 229.7880493402481 101.8971951007843 236.70651030540466 101.8971951007843 236.70651030540466 101.8971951007843 C 236.70651030540466 101.8971951007843 239.15314280986786 101.8971951007843 239.15314280986786 101.8971951007843 C 239.15314280986786 101.8971951007843 239.15314280986786 61.24798035621643 239.15314280986786 61.24798035621643 C 239.15314280986786 61.24798035621643 268.7095011472702 61.24798035621643 268.7095011472702 61.24798035621643 C 272.8247482776642 61.24798035621643 276.1597748994827 57.883522748947144 276.1597748994827 53.73175364732742 C 276.1597748994827 53.73175364732742 276.1597748994827 46.41021716594696 276.1597748994827 46.41021716594696 C 276.1597748994827 46.41021716594696 276.13114070892334 46.41021716594696 276.13114070892334 46.41021716594696 C 276.13114070892334 46.41021716594696 239.15314280986786 46.41021716594696 239.15314280986786 46.41021716594696 C 239.15314280986786 46.41021716594696 239.15314280986786 16.873473346233368 239.15314280986786 16.873473346233368 C 239.15314280986786 16.873473346233368 262.04581105709076 16.873473346233368 262.04581105709076 16.873473346233368 C 262.04581105709076 16.873473346233368 282.999920129776 16.873473346233368 282.999920129776 16.873473346233368 C 282.999920129776 16.873473346233368 282.999920129776 8.195945739746094 282.999920129776 8.195945739746094 Z"></path></g></svg></svg><svg id="SvgjsSvg108536" width="47" height="15" xmlns="http://www.w3.org/2000/svg" version="1.1" xmlns:xlink="http://www.w3.org/1999/xlink" xmlns:svgjs="http://svgjs.com/svgjs" viewBox="0 0.347900390625 47 14.30426025390625" fill="#004aa4" opacity="1" x="225" y="473"><defs id="SvgjsDefs108537"></defs><svg version="1.1" xmlns="http://www.w3.org/2000/svg" xmlns:xlink="http://www.w3.org/1999/xlink" width="47" height="15" viewBox="0.999877 0.999931 46 13.9999"><g><path fill="#004aa4" stroke="none" paint-order="stroke fill markers" fill-rule="evenodd" d=" M 0.9998766183853149 1.0376855731010437 C 0.9998766183853149 5.3467854261398315 1.5353604555130005 9.21112334728241 2.607796549797058 12.633461833000183 C 2.865259528160095 13.452607810497284 3.1481751203536987 14.240577042102814 3.4587459564208984 14.999868929386139 C 3.4587459564208984 14.999868929386139 44.57719886302948 14.999868929386139 44.57719886302948 14.999868929386139 C 44.882874965667725 14.240577042102814 45.16211950778961 13.452607810497284 45.41493248939514 12.633461833000183 C 46.471460700035095 9.21112334728241 46.999847173690796 5.3467854261398315 46.999847173690796 1.0376855731010437 C 46.999847173690796 1.0376855731010437 46.999847173690796 0.9999314546585083 46.999847173690796 0.9999314546585083 C 46.999847173690796 0.9999314546585083 0.9998766183853149 0.9999314546585083 0.9998766183853149 0.9999314546585083 C 0.9998766183853149 0.9999314546585083 0.9998766183853149 1.0376855731010437 0.9998766183853149 1.0376855731010437 Z"></path></g></svg></svg><svg id="SvgjsSvg108540" width="41" height="13" xmlns="http://www.w3.org/2000/svg" version="1.1" xmlns:xlink="http://www.w3.org/1999/xlink" xmlns:svgjs="http://svgjs.com/svgjs" viewBox="0 0.00006103515625 41 12.9998779296875" fill="#ff4119" opacity="1" x="228" y="487"><defs id="SvgjsDefs108541"></defs><svg version="1.1" xmlns="http://www.w3.org/2000/svg" xmlns:xlink="http://www.w3.org/1999/xlink" width="41" height="13" viewBox="-0.000135303 -0.0000232458 41 12.9999"><g><path fill="#ff4119" stroke="none" paint-order="stroke fill markers" fill-rule="evenodd" d=" M 3.737972617149353 6.007617294788361 C 5.213000535964966 7.679059207439423 6.924199342727661 9.058991968631744 8.86716377735138 10.151098906993866 C 9.545084357261658 10.532849609851837 10.248457551002502 10.882502734661102 10.981688618659973 11.193744003772736 C 13.820878744125366 12.398324012756348 17.01420283317566 12.999890506267548 20.556766152381897 12.999890506267548 C 24.098350524902344 12.999890506267548 27.280906200408936 12.398324012756348 30.10565686225891 11.193744003772736 C 32.929428577423096 9.990479469299316 35.32711374759674 8.261025130748749 37.30018079280853 6.007617294788361 C 38.79894816875458 4.294211745262146 40.031442046165466 2.2903494238853455 40.99986505508423 -0.000023245811462402344 C 40.99986505508423 -0.000023245811462402344 -0.00013530254364013672 -0.000023245811462402344 -0.00013530254364013672 -0.000023245811462402344 C 0.980279803276062 2.2903494238853455 2.2259894609451294 4.294211745262146 3.737972617149353 6.007617294788361 C 3.737972617149353 6.007617294788361 3.737972617149353 6.007617294788361 3.737972617149353 6.007617294788361"></path></g></svg></svg><svg id="SvgjsSvg108544" width="47" height="26" xmlns="http://www.w3.org/2000/svg" version="1.1" xmlns:xlink="http://www.w3.org/1999/xlink" xmlns:svgjs="http://svgjs.com/svgjs" viewBox="0 0.22821044921875 47 25.54351806640625" fill="#ffde19" opacity="1" x="225" y="449"><defs id="SvgjsDefs108545"></defs><svg version="1.1" xmlns="http://www.w3.org/2000/svg" xmlns:xlink="http://www.w3.org/1999/xlink" width="47" height="26" viewBox="0.999877 0.999888 46 25.0001"><g><path fill="#ffde19" stroke="none" paint-order="stroke fill markers" fill-rule="evenodd" d=" M 45.41591143608093 15.554561376571655 C 45.17288792133331 14.838943243026733 44.90196442604065 14.149108409881592 44.60852515697479 13.482952117919922 C 43.63349425792694 11.27256029844284 42.385337233543396 9.336050271987915 40.867725133895874 7.675658345222473 C 38.889029145240784 5.515780746936798 36.4844913482666 3.8636763095855713 33.65239858627319 2.7178980112075806 C 30.819326877593994 1.5734351873397827 27.627471208572388 0.9998883008956909 24.075607895851135 0.9998883008956909 C 20.521541953086853 0.9998883008956909 17.320141553878784 1.5734351873397827 14.472630381584167 2.7178980112075806 C 13.845370292663574 2.970600664615631 13.246010184288025 3.2572425603866577 12.658642172813416 3.559275507926941 C 10.584988355636597 4.626256883144379 8.762923836708069 5.991719424724579 7.2078670263290405 7.675658345222473 C 5.674591779708862 9.336050271987915 4.415666341781616 11.27256029844284 3.427419662475586 13.482952117919922 C 3.130064606666565 14.149108409881592 2.8569384813308716 14.838943243026733 2.607796549797058 15.554561376571655 C 1.537807822227478 18.63684970140457 1.0035476684570312 22.119831562042236 0.9998766183853149 25.99995517730713 C 0.9998766183853149 25.99995517730713 46.999847173690796 25.99995517730713 46.999847173690796 25.99995517730713 C 46.99739980697632 22.119831562042236 46.46901333332062 18.63684970140457 45.41591143608093 15.554561376571655 C 45.41591143608093 15.554561376571655 45.41591143608093 15.554561376571655 45.41591143608093 15.554561376571655"></path></g></svg></svg></svg>